<svg width="1008px" height="726px" viewBox="0 0 1008 726" version="1.1" xmlns="http://www.w3.org/2000/svg" xmlns:xlink="http://www.w3.org/1999/xlink">
    <g id="Page-1" stroke="none" stroke-width="1" fill="none" fill-rule="evenodd">
        <g id="1:1" transform="translate(-36, -177)" fill="#fffff" fill-rule="nonzero">
            <g id="logo-2-copy" transform="translate(36, 177)">
                <path d="M816.512304,260 C824.981108,260 832.179592,263.700688 838.107755,271.102064 C844.035918,278.50344 847,287.490826 847,298.06422 L847,376.307339 C847,386.175841 844.035918,394.81078 838.107755,402.212156 C832.179592,409.613532 824.981108,413.31422 816.512304,413.31422 L660.644546,413.31422 L660.644546,683.993119 C660.644546,693.861621 657.821611,702.49656 652.175741,709.897936 C646.529872,717.299312 639.472535,721 631.00373,721 L566.640816,721 C558.736598,721 551.820408,717.299312 545.892245,709.897936 C539.964082,702.49656 537,693.861621 537,683.993119 L537,298.06422 C537,287.490826 539.964082,278.50344 545.892245,271.102064 C551.820408,263.700688 558.736598,260 566.640816,260 L816.512304,260 Z M999.089189,10.28125 C1005.02973,17.1354167 1008,25.1319444 1008,34.2708333 L1008,105.75 C1008,115.541667 1005.02973,123.864583 999.089189,130.71875 C993.148649,137.572917 986.218018,141 978.297297,141 L566.702703,141 C558.781982,141 551.851351,137.572917 545.910811,130.71875 C539.97027,123.864583 537,115.541667 537,105.75 L537,34.2708333 C537,25.1319444 539.97027,17.1354167 545.910811,10.28125 C551.851351,3.42708333 558.781982,0 566.702703,0 L978.297297,0 C986.218018,0 993.148649,3.42708333 999.089189,10.28125 Z M980.431507,184 C988.308219,184 994.872146,188.262921 1000.12329,196.788764 C1005.37443,205.314607 1008,215.667416 1008,227.847191 L1008,683.370787 C1008,694.738577 1005.37443,704.685393 1000.12329,713.211236 C994.872146,721.737079 988.308219,726 980.431507,726 L920.568493,726 C913.216895,726 906.784247,721.737079 901.270548,713.211236 C895.756849,704.685393 893,694.738577 893,683.370787 L893,227.847191 C893,215.667416 895.756849,205.314607 901.270548,196.788764 C906.784247,188.262921 913.216895,184 920.568493,184 L980.431507,184 Z M286.61794,0 C354.090808,0 408.522702,22.1853604 449.913621,66.5560811 C491.30454,110.926802 512,170.033784 512,243.877027 C512,317.72027 491.58804,376.665315 450.76412,420.712162 C409.940199,464.759009 355.224806,486.782432 286.61794,486.782432 L243.684459,486.782432 L243.684459,684.993243 C243.684459,694.061712 240.707715,701.996622 234.754226,708.797973 C228.800738,715.599324 221.855001,719 213.917017,719 L149.279143,719 C141.341159,719 134.395422,715.599324 128.441934,708.797973 C122.488446,701.996622 119.511701,694.061712 119.511701,684.993243 L119.511701,383.790541 C119.511701,374.722072 122.488446,366.787162 128.441934,359.985811 C134.395422,353.184459 141.341159,349.783784 149.279143,349.783784 L281.51495,349.783784 C319.503876,349.783784 346.719823,340.391441 363.162791,321.606757 C379.605759,304.765315 387.827243,279.179279 387.827243,244.848649 C387.827243,210.518018 379.322259,184.122297 362.312292,165.661486 C345.302326,147.200676 318.369878,137.97027 281.51495,137.97027 L29.7674419,137.97027 C21.8294574,137.97027 14.8837209,134.569595 8.93023256,127.768243 C2.97674419,120.966892 0,113.031982 0,103.963514 L0,34.0067568 C0,24.9382883 2.97674419,17.0033784 8.93023256,10.202027 C14.8837209,3.40067568 21.8294574,0 29.7674419,0 L286.61794,0 Z M69,352 C80.5979797,352 90,361.40202 90,373 L90,698 C90,709.59798 80.5979797,719 69,719 L22,719 C10.4020203,719 1,709.59798 1,698 L1,373 C1,361.40202 10.4020203,352 22,352 L69,352 Z" id="Shape"></path>
            </g>
        </g>
    </g>
</svg>